<svg><g class="legend"><rect opacity="0.9" fill="#ffffff" height="180" width="95" y="355" x="865"></rect><text y="380" x="880" class="legendheader">Pct. of</text><text y="395" x="880" class="legendheader">commuters</text><rect style="fill: rgb(255, 255, 255);" height="15" width="10" y="505" x="895"></rect><rect style="fill: rgb(224, 236, 231);" height="15" width="10" y="495" x="895"></rect><rect style="fill: rgb(192, 217, 210);" height="15" width="10" y="485" x="895"></rect><rect style="fill: rgb(158, 199, 192);" height="15" width="10" y="475" x="895"></rect><rect style="fill: rgb(123, 181, 176);" height="15" width="10" y="465" x="895"></rect><rect style="fill: rgb(84, 162, 164);" height="15" width="10" y="455" x="895"></rect><rect style="fill: rgb(28, 144, 153);" height="15" width="10" y="445" x="895"></rect><rect style="fill: rgb(0, 125, 144);" height="15" width="10" y="435" x="895"></rect><rect style="fill: rgb(0, 107, 137);" height="15" width="10" y="425" x="895"></rect><rect style="fill: rgb(0, 89, 130);" height="15" width="10" y="415" x="895"></rect><rect style="fill: rgb(0, 71, 123);" height="15" width="10" y="405" x="895"></rect><text y="518" x="910" class="ticklabel">0%</text><text y="498" x="910" class="ticklabel">10%</text><text y="478" x="910" class="ticklabel">20%</text><text y="458" x="910" class="ticklabel">30%</text><text y="438" x="910" class="ticklabel">40%</text><text y="418" x="910" class="ticklabel">50%</text></g></svg>