<?xml version="1.0" encoding="UTF-8" standalone="no"?>
<!-- Created with Inkscape (http://www.inkscape.org/) -->

<svg
   xmlns:dc="http://purl.org/dc/elements/1.1/"
   xmlns:cc="http://creativecommons.org/ns#"
   xmlns:rdf="http://www.w3.org/1999/02/22-rdf-syntax-ns#"
   xmlns:svg="http://www.w3.org/2000/svg"
   xmlns="http://www.w3.org/2000/svg"
   xmlns:sodipodi="http://sodipodi.sourceforge.net/DTD/sodipodi-0.dtd"
   xmlns:inkscape="http://www.inkscape.org/namespaces/inkscape"
   width="650.09"
   height="200.36"
   id="svg2"
   version="1.1"
   inkscape:version="0.48.3.1 r9886"
   sodipodi:docname="leyenda-géneros.svg">
  <defs
     id="defs4" />
  <sodipodi:namedview
     id="base"
     pagecolor="#ffffff"
     bordercolor="#666666"
     borderopacity="1.0"
     inkscape:pageopacity="0.0"
     inkscape:pageshadow="2"
     inkscape:zoom="1.910505"
     inkscape:cx="325.045"
     inkscape:cy="100.18"
     inkscape:document-units="px"
     inkscape:current-layer="svg2"
     showgrid="false"
     inkscape:snap-page="false"
     inkscape:window-width="1375"
     inkscape:window-height="876"
     inkscape:window-x="65"
     inkscape:window-y="24"
     inkscape:window-maximized="1" />
  <metadata
     id="metadata7">
    <rdf:RDF>
      <cc:Work
         rdf:about="">
        <dc:format>image/svg+xml</dc:format>
        <dc:type
           rdf:resource="http://purl.org/dc/dcmitype/StillImage" />
        <dc:title />
      </cc:Work>
    </rdf:RDF>
  </metadata>
  <g
     id="g4090"
     transform="translate(-84.56854,-307.0825)">
    <g
       id="layer1"
       inkscape:groupmode="layer"
       inkscape:label="Capa 1">
      <rect
         y="389.9261"
         x="382.3713"
         height="32.32488"
         width="47.09181"
         id="rect3005"
         style="fill:#dcdcdc;fill-opacity:1;fill-rule:nonzero" />
      <rect
         y="389.2119"
         x="427.5773"
         height="32.32488"
         width="47.09181"
         id="rect3005-0"
         style="fill:#ff7da7;fill-opacity:0;fill-rule:nonzero" />
      <rect
         y="389.9259"
         x="428.506"
         height="32.32488"
         width="47.09181"
         id="rect3005-1"
         style="fill:#ffc9db;fill-opacity:1;fill-rule:nonzero" />
      <rect
         y="389.9259"
         x="474.9173"
         height="32.32488"
         width="47.09181"
         id="rect3005-1-0"
         style="fill:#ffb0c9;fill-opacity:1;fill-rule:nonzero" />
      <rect
         y="389.9259"
         x="521.0769"
         height="32.32488"
         width="47.09181"
         id="rect3005-1-0-6"
         style="fill:#ff96b8;fill-opacity:1;fill-rule:nonzero" />
      <rect
         y="389.9259"
         x="567.8858"
         height="32.32488"
         width="47.09181"
         id="rect3005-1-0-6-3"
         style="fill:#ff7da7;fill-opacity:1;fill-rule:nonzero" />
      <rect
         y="389.9259"
         x="614.4146"
         height="32.32488"
         width="47.09181"
         id="rect3005-1-0-6-3-2"
         style="fill:#ff6496;fill-opacity:1;fill-rule:nonzero" />
      <rect
         y="389.9263"
         x="336.5532"
         height="32.32488"
         width="47.09181"
         id="rect3005-9"
         style="fill:#c9dbff;fill-opacity:1;fill-rule:nonzero" />
      <rect
         y="389.9263"
         x="289.6014"
         height="32.32488"
         width="47.09181"
         id="rect3005-9-1"
         style="fill:#b0c9ff;fill-opacity:1;fill-rule:nonzero" />
      <rect
         y="389.9263"
         x="243.619"
         height="32.32488"
         width="47.09181"
         id="rect3005-9-1-3"
         style="fill:#b89fff;fill-opacity:0;fill-rule:nonzero" />
      <rect
         y="389.9263"
         x="244.1242"
         height="32.32488"
         width="47.09181"
         id="rect3005-9-1-8"
         style="fill:#96b8ff;fill-opacity:1;fill-rule:nonzero" />
      <rect
         y="389.9263"
         x="198.4541"
         height="32.32488"
         width="47.09181"
         id="rect3005-9-1-8-2"
         style="fill:#7da7ff;fill-opacity:1;fill-rule:nonzero" />
      <rect
         y="389.9263"
         x="151.4541"
         height="32.32488"
         width="47.09181"
         id="rect3005-9-1-8-2-0"
         style="fill:#6496ff;fill-opacity:1;fill-rule:nonzero" />
    </g>
  </g>
  <path
     sodipodi:type="arc"
     style="fill:#6496ff;fill-opacity:1;fill-rule:nonzero"
     id="path3122"
     sodipodi:cx="14.10991"
     sodipodi:cy="9.450932"
     sodipodi:rx="2.232581"
     sodipodi:ry="2.277233"
     d="m 16.34249,9.450932 a 2.232581,2.277233 0 1 1 -4.46516,0 2.232581,2.277233 0 1 1 4.46516,0 z"
     transform="matrix(2.441604,0,0,1.77287,18.61135,75.29278)" />
  <rect
     style="fill:#6496ff;fill-opacity:1;fill-rule:nonzero"
     id="rect3124"
     width="13.95476"
     height="0.9499385"
     x="46.30507"
     y="88.55279" />
  <rect
     style="fill:#6496ff;fill-opacity:1;fill-rule:nonzero"
     id="rect3126"
     width="5.887164"
     height="3.958077"
     x="50.22985"
     y="85.0648" />
  <rect
     style="fill:#6496ff;fill-opacity:1;fill-rule:nonzero"
     id="rect3128"
     width="1.962388"
     height="10.76597"
     x="52.18999"
     y="95.23104" />
  <rect
     style="fill:#6496ff;fill-opacity:1;fill-rule:nonzero"
     id="rect3136"
     width="17.00737"
     height="0.8707768"
     x="44.77655"
     y="95.74767" />
  <rect
     style="fill:#6496ff;fill-opacity:1;fill-rule:nonzero"
     id="rect3138"
     width="9.040555"
     height="1.406308"
     x="-65.42345"
     y="121.3288"
     transform="matrix(0.8091838,-0.5875556,0.8091838,0.5875556,0,0)" />
  <rect
     style="fill:#6496ff;fill-opacity:1;fill-rule:nonzero"
     id="rect3138-0"
     width="9.040555"
     height="1.406308"
     x="121.6243"
     y="55.55529"
     transform="matrix(0.8091838,0.5875556,-0.8091838,0.5875556,0,0)" />
  <text
     xml:space="preserve"
     style="font-size:8.6783619px;font-style:normal;font-weight:normal;line-height:125%;letter-spacing:0px;word-spacing:0px;fill:#000000;fill-opacity:1;stroke:none;font-family:Sans"
     x="64.340981"
     y="48.350784"
     id="text3194"
     sodipodi:linespacing="125%"
     transform="scale(1.093735,0.9142983)"><tspan
       sodipodi:role="line"
       id="tspan3196"
       x="64.340981"
       y="48.350784"
       style="font-size:8.6783619px" /></text>
  <text
     xml:space="preserve"
     style="font-size:23.6281071px;font-style:normal;font-weight:normal;line-height:125%;letter-spacing:0px;word-spacing:0px;fill:#6496ff;fill-opacity:0.9411765;stroke:none;font-family:Sans"
     x="22.773548"
     y="81.707733"
     id="text3198"
     sodipodi:linespacing="125%"
     transform="scale(0.7803709,1.281442)"><tspan
       sodipodi:role="line"
       id="tspan3200"
       x="22.773548"
       y="81.707733"
       style="font-size:11.8140535px;fill:#6496ff;fill-opacity:0.9411765">100%</tspan></text>
  <path
     sodipodi:type="arc"
     style="fill:#ff6496;fill-opacity:1;fill-rule:nonzero"
     id="path3122-2"
     sodipodi:cx="14.10991"
     sodipodi:cy="9.450932"
     sodipodi:rx="2.232581"
     sodipodi:ry="2.277233"
     d="m 16.34249,9.450932 a 2.232581,2.277233 0 1 1 -4.46516,0 2.232581,2.277233 0 1 1 4.46516,0 z"
     transform="matrix(1.976382,0,0,1.992062,562.0027,70.17154)" />
  <rect
     style="fill:#ff6496;fill-opacity:1;fill-rule:nonzero"
     id="rect3128-5"
     width="1.588475"
     height="11.0316"
     x="589.1832"
     y="92.57646" />
  <rect
     style="fill:#ff6496;fill-opacity:1;fill-rule:nonzero"
     id="rect3136-2"
     width="13.76678"
     height="0.9784365"
     x="583.1824"
     y="95.40347" />
  <rect
     style="fill:#ff6496;fill-opacity:1;fill-rule:nonzero"
     id="rect3138-7"
     width="8.407667"
     height="1.30786"
     x="337.5993"
     y="490.9529"
     transform="matrix(0.7043074,-0.7098951,0.7043074,0.7098951,0,0)" />
  <rect
     style="fill:#ff6496;fill-opacity:1;fill-rule:nonzero"
     id="rect3138-0-4"
     width="8.407667"
     height="1.30786"
     x="491.2283"
     y="-346.7765"
     transform="matrix(0.7043074,0.7098951,-0.7043074,0.7098951,0,0)" />
  <path
     style="fill:#ff6496;fill-opacity:1;stroke:#ff6496;stroke-width:0.1138026px;stroke-linecap:butt;stroke-linejoin:miter;stroke-opacity:1"
     d="m 589.1956,100.9159 -4.7388,3.9804 11.1704,-0.1193 -4.7391,-3.7467 z"
     id="path4540"
     inkscape:connector-curvature="0" />
  <path
     style="fill:#ff6496;fill-opacity:1;fill-rule:nonzero"
     d="m 584.1454,104.7965 c 0.4058,-0.389 4.8096,-3.8226 4.904,-3.8226 0.055,0 0.1,0.4627 0.1,1.0294 l -3e-4,1.0295 -0.9948,0.8859 -0.9952,0.8839 -1.6028,0.08 c -1.4164,0.08 -1.5802,0.08 -1.4101,-0.099 z"
     id="path4542"
     inkscape:connector-curvature="0" />
  <path
     style="fill:#ff6496;fill-opacity:1;fill-rule:nonzero"
     d="m 591.699,103.7769 -1.023,-1.0593 0.038,-0.9676 0.038,-0.9677 2.4349,1.9013 c 1.3391,1.0455 2.4909,1.9573 2.5596,2.0272 0.076,0.079 -0.4844,0.1192 -1.4507,0.1192 l -1.5759,0 -1.023,-1.0594 z"
     id="path4544"
     inkscape:connector-curvature="0" />
  <text
     xml:space="preserve"
     style="font-size:23.6281071px;font-style:normal;font-weight:normal;line-height:125%;letter-spacing:0px;word-spacing:0px;fill:#ff6496;fill-opacity:1;stroke:none;font-family:Sans"
     x="768.1615"
     y="80.188332"
     id="text3198-6"
     sodipodi:linespacing="125%"
     transform="scale(0.7803709,1.281442)"><tspan
       sodipodi:role="line"
       id="tspan3200-9"
       x="768.1615"
       y="80.188332"
       style="font-size:11.8140535px;fill:#ff6496;fill-opacity:1">100%</tspan></text>
</svg>
